HIERARCHY
ROOT Bip001_Pelvis
{
  OFFSET 7.937 94.8971 -8.5489
  CHANNELS 6 Xposition Yposition Zposition Zrotation Xrotation Yrotation
  JOINT Bip001_Spine
  {
    OFFSET 1.44608e-005 10.4157 -0.0118244
    CHANNELS 3 Zrotation Xrotation Yrotation
    JOINT Bip001_L_Thigh
    {
      OFFSET 11.2582 -10.4157 0.0118432
      CHANNELS 3 Zrotation Xrotation Yrotation
      JOINT Bip001_L_Calf
      {
        OFFSET -0.720717 -44.8687 0.366937
        CHANNELS 3 Zrotation Xrotation Yrotation
        JOINT Bip001_L_Foot
        {
          OFFSET -0.664439 -41.3745 -3.62995
          CHANNELS 3 Zrotation Xrotation Yrotation
          JOINT Bip001_L_Toe0
          {
            OFFSET 0.0541047 -10.4146 13.4033
            CHANNELS 3 Zrotation Xrotation Yrotation
            End Site
            {
              OFFSET -1.04503e-005 0 7.70137
            }
          }
        }
      }
    }
    JOINT Bip001_R_Thigh
    {
      OFFSET -11.2582 -10.4156 0.0118122
      CHANNELS 3 Zrotation Xrotation Yrotation
      JOINT Bip001_R_Calf
      {
        OFFSET 0.72059 -44.8687 0.36676
        CHANNELS 3 Zrotation Xrotation Yrotation
        JOINT Bip001_R_Foot
        {
          OFFSET 0.664321 -41.3745 -3.62979
          CHANNELS 3 Zrotation Xrotation Yrotation
          JOINT Bip001_R_Toe0
          {
            OFFSET -0.05417 -10.4146 13.4033
            CHANNELS 3 Zrotation Xrotation Yrotation
            End Site
            {
              OFFSET -1.04873e-005 0 7.70137
            }
          }
        }
      }
    }
    JOINT Bip001_Spine1
    {
      OFFSET 1.90638e-005 14.8539 1.10727
      CHANNELS 3 Zrotation Xrotation Yrotation
      JOINT Bip001_Spine2
      {
        OFFSET 2.28934e-005 14.7848 -1.7233
        CHANNELS 3 Zrotation Xrotation Yrotation
        JOINT Bip001_Neck
        {
          OFFSET 2.24514e-005 15.6905 -0.498826
          CHANNELS 3 Zrotation Xrotation Yrotation
          JOINT Bip001_L_Clavicle
          {
            OFFSET 6.17691 -0.000591152 0.00852867
            CHANNELS 3 Zrotation Xrotation Yrotation
            JOINT Bip001_L_UpperArm
            {
              OFFSET 11.773 -0.0611878 0.00197697
              CHANNELS 3 Zrotation Xrotation Yrotation
              JOINT Bip001_L_Forearm
              {
                OFFSET 26.4515 0.0817568 -2.19579
                CHANNELS 3 Zrotation Xrotation Yrotation
                JOINT Bip001_L_Hand
                {
                  OFFSET 32.8677 0.156744 1.67112
                  CHANNELS 3 Zrotation Xrotation Yrotation
                  JOINT Bip001_L_Finger0
                  {
                    OFFSET 6.16268 -2.25226 6.01674
                    CHANNELS 3 Zrotation Xrotation Yrotation
                    End Site
                    {
                      OFFSET 4.30499 -1.46662 0.618148
                    }
                  }
                  JOINT Bip001_L_Finger1
                  {
                    OFFSET 11.2957 -0.718374 -0.201963
                    CHANNELS 3 Zrotation Xrotation Yrotation
                    End Site
                    {
                      OFFSET 6.31952 -0.405163 -0.0802303
                    }
                  }
                }
              }
            }
          }
          JOINT Bip001_R_Clavicle
          {
            OFFSET -6.17691 -0.000574027 0.00851165
            CHANNELS 3 Zrotation Xrotation Yrotation
            JOINT Bip001_R_UpperArm
            {
              OFFSET -11.773 -0.0611516 0.00194365
              CHANNELS 3 Zrotation Xrotation Yrotation
              JOINT Bip001_R_Forearm
              {
                OFFSET -26.4514 0.0822334 -2.19736
                CHANNELS 3 Zrotation Xrotation Yrotation
                JOINT Bip001_R_Hand
                {
                  OFFSET -32.8677 0.156817 1.67144
                  CHANNELS 3 Zrotation Xrotation Yrotation
                  JOINT Bip001_R_Finger0
                  {
                    OFFSET -6.1627 -2.25224 6.0167
                    CHANNELS 3 Zrotation Xrotation Yrotation
                    End Site
                    {
                      OFFSET -4.30499 -1.46662 0.618134
                    }
                  }
                  JOINT Bip001_R_Finger1
                  {
                    OFFSET -11.2958 -0.718344 -0.201994
                    CHANNELS 3 Zrotation Xrotation Yrotation
                    End Site
                    {
                      OFFSET -6.31952 -0.405146 -0.0802475
                    }
                  }
                }
              }
            }
          }
          JOINT Bip001_Head
          {
            OFFSET 1.11782e-005 11.4912 2.09908
            CHANNELS 3 Zrotation Xrotation Yrotation
            End Site
            {
              OFFSET 2.95144e-005 21.2823 -2.83069e-005
            }
          }
        }
      }
    }
  }
}
MOTION
Frames:	16
Frame Time:	0.04
10.6348 95.2126 -8.78779 -0.4316 -3.97318 -5.12819 -0.0382758 1.33473 -0.418311 4.23272 -5.62525 10.45 -1.67632 17.4062 1.26818 -1.18558 -8.18318 3.50187 0.674423 -9.88501 -0.316145 -9.31382 -5.50826 -0.333872 -1.07706 14.5773 6.18348 3.12515 -6.55662 -6.29083 -0.546287 -11.6835 0.469908 -0.163642 2.67006 -0.840265 -0.163642 2.67006 -0.840268 -2.87822 -1.26261 -2.58176 -27.3749 5.38168 -8.1107 -52.0276 40.4278 7.74292 13.2522 1.23226 -26.4259 -3.07699 -0.357816 -2.0216 -3.18055e-015 3.18055e-015 7.95139e-016 -1.76556e-031 6.36111e-015 1.59028e-015 33.2262 7.89143 12.2914 56.2024 17.2722 -20.8584 6.32028 -27.8912 52.2913 0.832893 0.0220131 -12.1416 -2.78298e-015 0 9.54166e-015 -5.96354e-016 0 3.18055e-015 0.638901 3.71369 -3.48556 
10.6481 95.1739 -8.5431 -0.490586 -4.13786 -5.70734 -0.0358608 1.31982 -0.544542 4.26654 -5.23519 11.3792 -1.49861 17.5862 1.04873 -1.26734 -8.52446 3.43568 0.673586 -9.87874 -0.321222 -9.19149 -5.47839 0.494335 -1.1426 14.8336 6.23342 3.02245 -6.74989 -6.38541 -0.426302 -11.7073 0.424042 -0.141966 2.64029 -1.09256 -0.142608 2.6403 -1.09244 -2.7904 -1.18222 -2.3889 -27.0276 5.37272 -8.37708 -53.3102 40.3413 8.93302 13.447 1.17984 -26.5123 -2.72018 -0.401871 -1.95353 4.41391e-031 -6.36111e-015 3.97569e-015 3.18055e-015 -6.36111e-015 3.97569e-015 33.2953 7.4074 11.2811 54.627 9.04415 -21.5429 2.26632 -19.6062 58.6057 -1.50375 0.101008 -10.0196 1.98785e-015 1.59028e-015 -6.36111e-015 4.41391e-032 7.95139e-016 -3.18055e-015 0.361963 3.67254 -3.20621 
10.6392 95.1165 -8.43594 -0.6547 -4.03514 -6.21357 0.037639 1.26615 -0.685901 4.50274 -5.25611 11.9431 -1.61963 18.001 0.820211 -1.20311 -8.94222 3.6099 0.69592 -9.82832 -0.172574 -8.93711 -5.73028 0.171457 -1.63133 15.0845 6.73894 3.08927 -6.83318 -5.89258 -0.312387 -11.7501 0.45669 0.0143662 2.53223 -1.37655 0.0143663 2.53222 -1.37655 -3.06104 -1.16567 -2.17535 -26.6412 5.43615 -8.51746 -53.9866 40.2546 9.65443 13.4365 1.13444 -26.3426 -3.01262 -0.456301 -1.77946 -0 0 2.38542e-015 3.18055e-015 -6.36111e-015 7.95139e-016 33.3146 7.14845 10.8693 52.7169 -0.270473 -22.3413 -3.36383 -11.428 65.5391 -3.87992 1.84608 -8.95371 7.95139e-016 0 -3.18055e-015 -1.59028e-015 1.59028e-015 -3.18055e-015 0.287892 3.61665 -3.05751 
10.7066 95.0724 -8.32065 -0.694356 -3.93143 -6.60325 0.0807732 1.20607 -0.827723 4.4749 -5.22361 12.2 -1.62152 18.1818 0.295466 -1.09745 -9.25051 4.20559 0.753839 -9.77552 0.0396445 -8.95124 -5.96678 0.335355 -1.72165 15.3572 6.43612 3.19185 -6.92056 -5.32057 -0.261614 -11.7958 0.581624 0.101472 2.4114 -1.66139 0.101717 2.41141 -1.66137 -3.23685 -1.16629 -2.04023 -26.4997 5.40562 -8.3501 -54.3542 40.7039 10.372 13.7286 1.17778 -26.145 -3.65141 -0.495924 -1.63972 1.59028e-015 -3.18055e-015 -3.18055e-015 1.59028e-015 -9.54167e-015 -1.59028e-015 33.1215 6.97682 10.6459 49.7463 -9.90483 -23.1731 -8.6618 -3.70968 73.4266 -6.93727 1.92465 -6.7291 7.95139e-015 0 -6.36111e-015 6.36111e-015 0 -0 0.315444 3.40846 -2.98324 
10.8177 95.0263 -8.17544 -0.55194 -3.97307 -6.74439 0.0459352 1.15212 -0.903928 4.24582 -5.03003 12.2433 -1.58091 18.1757 0.0369859 -1.00322 -9.42417 4.53022 0.767027 -9.73149 0.153052 -9.1696 -6.07136 0.452823 -1.67244 15.7966 6.38333 3.17956 -7.18307 -5.17007 -0.201684 -11.8198 0.622556 0.0361621 2.30395 -1.81244 0.0361193 2.30394 -1.8126 -2.83002 -1.14511 -2.27001 -26.7954 5.23071 -8.08799 -54.4097 40.9586 10.79 13.8499 1.99482 -25.6314 -3.95499 -0.531382 -2.17284 -3.18055e-015 -3.18055e-015 -0 -3.18055e-015 0 7.95139e-016 32.3858 6.86088 10.4189 45.386 -19.2651 -24.4355 -13.9033 3.24408 82.2969 -8.23436 1.92395 -4.17859 -7.95139e-015 -7.95139e-015 -3.18055e-015 -7.95139e-015 -6.36111e-015 -3.18055e-015 0.0413328 3.23831 -3.02361 
10.7259 94.9696 -8.03059 -0.680794 -3.86441 -6.48886 0.0506308 1.08407 -0.930125 4.47571 -5.24455 10.836 -2.0696 18.6365 0.055637 -0.776764 -9.77373 5.69913 0.792033 -9.70805 0.238175 -8.81536 -6.03533 0.597044 -1.88159 16.038 6.9862 2.85425 -7.44557 -6.00336 0.0153001 -11.8396 0.474663 0.0704012 2.16756 -1.86391 0.0702873 2.16756 -1.86395 -2.45032 -1.28474 -2.72023 -26.8891 5.17833 -7.83924 -54.6466 41.242 11.0234 13.6592 1.67134 -24.9734 -3.78796 -0.452901 -1.75206 1.59028e-015 6.36111e-015 -0 3.18055e-015 9.54167e-015 -0 31.7736 6.98601 10.2158 41.9931 -22.4883 -24.7269 -18.1678 3.86404 89.5051 -10.9013 2.70154 -2.6954 -3.18055e-015 -6.36111e-015 3.18055e-015 -3.18055e-015 -6.36111e-015 -0 -0.155395 3.27226 -3.29977 
10.6832 94.9269 -7.91591 -0.514044 -3.7401 -6.01437 -0.00466119 1.00551 -0.892794 4.42316 -5.37508 10.4247 -2.18774 18.7535 -0.298575 -0.700093 -9.8622 6.0438 0.862647 -9.72963 0.184247 -8.8401 -6.11607 0.808782 -1.79621 16.5362 7.24826 2.44278 -7.82255 -6.88596 0.228143 -11.8596 0.337338 -0.0141161 2.01114 -1.78712 -0.0141015 2.01113 -1.78705 -2.22122 -1.4535 -3.19839 -26.8214 5.18356 -7.66206 -54.9491 40.9586 11.1846 13.8459 1.60924 -24.424 -3.58517 -0.401669 -1.24714 0 0 -7.95139e-016 1.59028e-015 0 -3.18055e-015 31.4992 7.13166 9.87609 37.4408 -24.6868 -24.5645 -22.4976 2.8695 95.6821 -13.29 2.64475 -1.97225 -3.18055e-015 1.59028e-015 -0 -6.36111e-015 1.59028e-015 -3.18055e-015 -0.200363 3.44157 -3.68281 
10.5533 94.9191 -7.80494 -0.415721 -3.59711 -5.326 -0.0415714 0.933204 -0.880781 4.52341 -5.47035 10.7749 -2.0949 18.7641 -1.05422 -0.707494 -9.82547 5.75624 0.852768 -9.7373 0.161591 -8.81187 -6.02447 0.910523 -1.66168 16.7773 6.56693 2.29058 -8.07687 -7.05421 0.299135 -11.8765 0.352064 -0.0838491 1.86705 -1.76168 -0.0828763 1.86704 -1.76171 -1.83042 -1.542 -3.62422 -26.9836 5.10009 -7.46556 -54.7016 39.4617 10.9459 13.7657 2.61142 -24.2427 -3.03214 -0.305627 -0.913842 -8.82781e-032 -3.18055e-015 -1.59028e-015 0 0 -7.95139e-016 31.2745 7.29769 9.79216 32.0691 -26.5072 -23.5678 -23.8664 1.78097 100.542 -15.5627 2.82695 -0.866546 -3.53112e-031 -6.36111e-015 -3.18055e-015 -3.18055e-015 -3.18056e-015 -3.18055e-015 -0.555177 3.39137 -3.89662 
10.3288 94.903 -7.75644 -0.434594 -3.34942 -4.31074 -0.0332788 0.856083 -0.944945 4.70536 -5.87858 10.4273 -1.94832 18.9977 -1.18982 -0.925686 -9.84079 5.14236 0.872952 -9.72368 0.264592 -8.66107 -5.95366 -0.0772537 -1.76532 16.9632 6.6159 2.11462 -8.30913 -7.14547 0.349258 -11.9035 0.405136 -0.0634791 1.71256 -1.88987 -0.0642759 1.71261 -1.88993 -1.85769 -1.62944 -3.75286 -26.8661 5.08767 -7.23875 -54.4272 39.112 10.9372 13.5968 2.42689 -24.6249 -2.60024 -0.306173 -0.496797 -6.36111e-015 -3.18055e-015 7.95139e-016 -3.18055e-015 -3.18056e-015 1.59028e-015 30.796 7.3908 9.96572 27.7298 -28.627 -21.2956 -24.2821 0.917213 104.192 -18.7493 3.44576 -0.949024 -3.18055e-015 -1.59028e-015 -9.54166e-015 -6.36111e-015 -1.59028e-015 -9.54166e-015 -0.478432 3.4697 -4.04476 
10.0103 94.8207 -7.80138 -0.31529 -2.93634 -3.17549 -0.0518486 0.757339 -0.988482 4.82729 -6.59036 9.45989 -1.92525 19.3378 -1.74536 -1.04948 -9.94202 5.1911 0.923967 -9.61895 0.65405 -8.63815 -6.38416 -1.54853 -1.90113 17.8297 6.57088 2.0455 -8.87705 -6.83888 0.267838 -11.9122 0.524264 -0.119216 1.51571 -1.97743 -0.119067 1.51571 -1.9775 -1.69127 -1.69252 -3.95451 -26.919 5.03519 -7.04126 -54.1801 38.7893 10.7749 13.6566 2.45107 -24.868 -2.30613 -0.301206 -0.523596 -3.18055e-015 6.36111e-015 -1.59028e-015 1.76556e-031 3.18056e-015 -3.18055e-015 29.2653 7.5066 10.7102 25.282 -31.2305 -16.8938 -24.1973 0.545295 106.468 -22.9001 3.31462 -1.34664 -6.36111e-015 -4.77083e-015 -0 2.64834e-031 -4.77083e-015 3.18055e-015 -0.430258 3.43819 -4.20497 
9.51142 94.7573 -7.9955 -0.317251 -2.36318 -1.84371 -0.0635853 0.639771 -0.972539 5.20544 -7.64547 8.39327 -1.9439 19.8163 -1.72377 -1.37857 -9.88784 4.60828 0.968549 -9.54237 0.934531 -8.38841 -6.91093 -2.49473 -1.87003 18.5697 5.80126 1.9682 -9.33553 -6.63104 0.11686 -11.8983 0.618412 -0.161575 1.28092 -1.94691 -0.161576 1.28092 -1.94692 -1.45859 -1.73382 -4.31127 -26.9248 4.88648 -6.74441 -54.062 39.3414 10.6884 13.6681 1.6584 -25.2441 -2.23106 -0.269495 -0.819462 -0 -3.18055e-015 -0 4.41391e-032 -3.18056e-015 7.95139e-016 27.7883 7.68976 11.6559 24.1147 -34.1207 -9.10993 -25.0366 0.0360628 106.637 -26.8653 3.12325 -1.65539 -7.72433e-032 -7.95139e-016 -5.56597e-015 3.18055e-015 2.38542e-015 -1.59028e-015 -0.361454 3.07284 -4.50681 
8.86031 94.7933 -8.16045 -0.354618 -2.03263 -0.0178762 -0.103541 0.600651 -0.882269 5.63955 -8.34822 7.59317 -1.80426 19.7063 -1.89186 -1.8559 -9.41795 3.57392 0.971973 -9.53399 0.958531 -7.99552 -6.82112 -3.10407 -1.57661 18.6842 5.18668 1.53839 -9.58207 -7.41039 0.0156459 -11.8548 0.544404 -0.250866 1.20323 -1.76638 -0.250865 1.20322 -1.76637 -0.821177 -1.89819 -4.9517 -27.391 4.82601 -6.55402 -53.7071 39.5668 10.6034 14.0132 1.41318 -25.8793 -2.56249 -0.274297 -1.04275 6.36111e-015 -3.18055e-015 -1.59028e-015 3.18055e-015 0 -1.59028e-015 25.8335 8.10244 13.0147 24.768 -37.4958 1.88179 -28.0715 -0.597937 104.111 -29.6498 2.12939 -1.73425 1.37935e-032 -3.97569e-016 1.98785e-015 8.27608e-033 -1.98785e-016 2.38542e-015 -0.470248 2.86499 -4.92356 
8.08684 94.8954 -8.38985 -0.270563 -1.64564 2.32024 -0.172235 0.548923 -0.788699 6.01378 -8.94643 8.45719 -1.13029 18.9977 -3.33993 -2.49977 -8.42157 1.75559 0.944163 -9.58684 0.78758 -7.63649 -6.58677 -2.95603 -0.863804 18.5354 4.42414 0.753435 -9.73749 -9.29291 -0.0699231 -11.7665 0.319505 -0.385979 1.10051 -1.57822 -0.385981 1.10051 -1.57823 -0.228888 -2.05092 -5.44288 -28.1878 4.70324 -6.11935 -51.8595 39.933 9.17535 13.7892 1.5048 -25.9672 -3.02789 -0.313151 -1.68445 3.18055e-015 -6.36111e-015 1.59028e-015 3.18055e-015 0 1.59028e-015 23.0892 8.52939 15.3451 26.8252 -39.3869 13.6588 -31.2265 -0.225848 98.7484 -33.3952 2.7506 -2.71707 -6.36111e-015 7.95139e-016 2.98177e-015 -3.18055e-015 3.97569e-016 2.38542e-015 -0.556946 3.09468 -5.20886 
7.21719 95.0386 -8.70323 -0.253528 -1.02378 5.22284 -0.20558 0.433738 -0.576493 6.32101 -9.85011 7.97974 -0.841634 18.0147 -3.85277 -3.09232 -7.04549 -0.0842416 0.895661 -9.67754 0.4943 -7.16512 -6.33289 -3.14623 -0.301864 18.0761 3.16283 0.0915374 -9.71512 -11.0566 -0.160656 -11.6834 0.142918 -0.454536 0.869778 -1.15355 -0.45447 0.869776 -1.15354 -0.320663 -2.12472 -5.75865 -28.854 4.68502 -5.87292 -49.738 40.5097 7.74822 14.0392 1.98889 -25.8715 -3.37815 -0.214402 -2.39823 -3.18055e-015 -6.36111e-015 3.18055e-015 -3.18055e-015 -6.36111e-015 1.59028e-015 20.2604 8.74191 18.1644 29.1833 -41.4334 23.8474 -35.3445 1.64608 91.0978 -35.6335 2.37994 -3.40831 -1.59028e-015 1.59028e-015 -1.59028e-015 -4.77083e-015 0 1.39149e-015 -0.0541784 3.64528 -5.6589 
6.28419 95.1656 -9.12323 -0.364479 0.0558774 8.48357 -0.257969 0.234519 -0.166371 6.54949 -11.3406 7.91631 -0.367742 16.9924 -5.21443 -3.61832 -5.43416 -1.87787 0.824627 -9.79622 0.0989632 -6.64405 -6.48952 -3.71072 0.225494 17.6115 2.2521 -0.716421 -9.65884 -13.2353 -0.231932 -11.5587 -0.203739 -0.551895 0.469838 -0.332736 -0.552303 0.469838 -0.332775 0.176822 -2.5107 -6.17598 -29.9954 4.87762 -5.59554 -47.1794 39.9835 5.56878 14.0771 3.05378 -25.9252 -3.42325 -0.218651 -2.6724 -0 0 1.59028e-015 -3.18055e-015 0 1.59028e-015 17.6086 9.12477 20.3283 28.8684 -42.0469 31.9931 -37.2252 4.37048 80.1007 -39.7871 1.42118 -2.94982 -7.95139e-016 0 -0 -7.95139e-016 1.59028e-015 -2.18663e-015 -0.343321 4.33328 -5.8371 
5.43608 95.3022 -9.49135 -0.391221 1.19844 11.6004 -0.380357 0.0415041 0.387251 6.49579 -12.6257 8.23426 0.124166 15.4874 -6.03508 -4.11817 -3.51272 -4.40452 0.724933 -9.95441 -0.437282 -6.25581 -6.77445 -4.48942 0.622807 17.1871 2.58661 -1.93212 -9.48807 -16.2199 -0.0618253 -11.4308 -0.802494 -0.752923 0.080425 0.778434 -0.752894 0.0804253 0.778435 0.657053 -2.75575 -6.38217 -30.6566 5.26197 -6.23048 -45.7507 39.6991 4.6689 14.3362 2.43798 -26.8768 -3.18856 -0.218052 -2.53251 3.18055e-015 0 -0 3.18055e-015 0 -0 13.911 8.53015 20.852 17.9315 -30.6723 33.8068 -33.5643 -0.291806 56.7029 -40.5432 0.469365 -2.05099 0 0 -3.97569e-016 -6.62086e-032 1.59028e-015 2.38542e-015 -0.614272 4.86418 -5.82838 
